HIERARCHY
ROOT Hips
{
	OFFSET 0.000000 0.000000 0.000000
	CHANNELS 6 Xposition Yposition Zposition Zrotation Yrotation Xrotation 
	JOINT LeftUpLeg_virtual
	{
		OFFSET 0.000000 0.000000 0.000000
		CHANNELS 3 Zrotation Yrotation Xrotation
		JOINT LeftUpLeg
		{
			OFFSET 8.479694 -4.795517 -0.379053
			CHANNELS 3 Zrotation Yrotation Xrotation
			JOINT LeftLeg
			{
				OFFSET 0.485052 -32.551468 0.112863
				CHANNELS 3 Zrotation Yrotation Xrotation
				JOINT LeftFoot
				{
					OFFSET 0.438033 -32.635670 -3.012641
					CHANNELS 3 Zrotation Yrotation Xrotation
					JOINT LeftToeBase
					{
						OFFSET 0.970169 -13.225353 11.864223
						CHANNELS 3 Zrotation Yrotation Xrotation
						End Site
						{
							OFFSET 0.000000 0.000000 0.000000
						}
					}
				}
			}
		}
	}
	JOINT RightUpLeg_virtual
	{
		OFFSET 0.000000 0.000000 0.000000
		CHANNELS 3 Zrotation Yrotation Xrotation
		JOINT RightUpLeg
		{
			OFFSET -8.479694 -4.795517 -0.379053
			CHANNELS 3 Zrotation Yrotation Xrotation
			JOINT RightLeg
			{
				OFFSET -0.484100 -32.551483 0.112903
				CHANNELS 3 Zrotation Yrotation Xrotation
				JOINT RightFoot
				{
					OFFSET -0.438985 -32.635651 -3.012681
					CHANNELS 3 Zrotation Yrotation Xrotation
					JOINT RightToeBase
					{
						OFFSET -0.970169 -13.225354 11.864223
						CHANNELS 3 Zrotation Yrotation Xrotation
						End Site
						{
							OFFSET 0.000000 0.000000 0.000000
						}
					}
				}
			}
		}
	}
	JOINT Spine_virtual
	{
		OFFSET 0.000000 0.000000 0.000000
		CHANNELS 3 Zrotation Yrotation Xrotation
		JOINT Spine
		{
			OFFSET 0.000000 7.722015 1.166203
			CHANNELS 3 Zrotation Yrotation Xrotation
			JOINT Spine1
			{
				OFFSET 0.000000 12.024086 0.248766
				CHANNELS 3 Zrotation Yrotation Xrotation
				JOINT Spine2
				{
					OFFSET -0.000000 11.503036 -0.491240
					CHANNELS 3 Zrotation Yrotation Xrotation
					JOINT Neck_virtual
					{
						OFFSET 0.000000 0.000000 0.000000
						CHANNELS 3 Zrotation Yrotation Xrotation
						JOINT Neck
						{
							OFFSET 0.000000 18.430687 -3.123054
							CHANNELS 3 Zrotation Yrotation Xrotation
							JOINT Head
							{
								OFFSET -0.000000 9.051071 1.034021
								CHANNELS 3 Zrotation Yrotation Xrotation
								End Site
								{
									OFFSET 0.000000 0.000000 0.000000
								}
							}
						}
					}
					JOINT LeftShoulder_virtual
					{
						OFFSET 0.000000 0.000000 0.000000
						CHANNELS 3 Zrotation Yrotation Xrotation
						JOINT LeftShoulder
						{
							OFFSET 6.197824 13.665230 -4.064723
							CHANNELS 3 Zrotation Yrotation Xrotation
							JOINT LeftArm
							{
								OFFSET 7.778132 -0.187073 -1.709282
								CHANNELS 3 Zrotation Yrotation Xrotation
								JOINT LeftForeArm
								{
									OFFSET 21.954697 0.000000 -2.041093
									CHANNELS 3 Zrotation Yrotation Xrotation
									JOINT LeftHand
									{
										OFFSET 22.992908 0.000000 -0.870901
										CHANNELS 3 Zrotation Yrotation Xrotation
										End Site
										{
											OFFSET 0.000000 0.000000 0.000000
										}
									}
								}
							}
						}
					}
					JOINT RightShoulder_virtual
					{
						OFFSET 0.000000 0.000000 0.000000
						CHANNELS 3 Zrotation Yrotation Xrotation
						JOINT RightShoulder
						{
							OFFSET -6.197824 13.665230 -4.064723
							CHANNELS 3 Zrotation Yrotation Xrotation
							JOINT RightArm
							{
								OFFSET -7.778132 -0.187073 -1.709282
								CHANNELS 3 Zrotation Yrotation Xrotation
								JOINT RightForeArm
								{
									OFFSET -21.954697 0.000000 -2.041093
									CHANNELS 3 Zrotation Yrotation Xrotation
									JOINT RightHand
									{
										OFFSET -22.992908 0.000000 -0.870901
										CHANNELS 3 Zrotation Yrotation Xrotation
										End Site
										{
											OFFSET 0.000000 0.000000 0.000000
										}
									}
								}
							}
						}
					}
				}
			}
		}
	}
}
MOTION
Frames: 10
Frame Time: 0.033333
10.125103 79.034157 49.138351 -0.088045 -37.357385 0.204326 -6.222416 3.337542 14.128665 -1.778327 0.084169 -12.014352 7.402803 2.905772 27.740545 -0.227255 -8.552602 -20.063435 0.000000 0.000000 0.000000 -3.552633 4.054936 12.567350 3.419842 -0.242835 -45.030361 -1.046658 5.938953 27.086433 5.238354 7.994142 0.781863 0.000000 0.000000 0.000000 -1.360372 5.721138 2.839000 1.027354 -2.190268 -4.373968 -0.009849 -4.513804 5.544417 -0.016723 -0.007030 -0.002921 0.076779 -3.383661 6.684169 5.357016 -0.107645 -4.128271 0.000000 0.000000 0.000000 1.333224 -3.256432 3.203598 -3.068461 -1.208965 -2.675257 -56.189357 -31.187853 47.036378 -138.923684 -88.403821 167.962575 0.000000 0.000000 0.000000 -2.250481 -1.715230 2.633388 10.856247 -11.018725 -13.223302 0.104291 23.996015 -44.049037 0.756310 26.084627 0.179974 0.000000 0.000000 0.000000 
7.972425 79.007576 50.743053 -0.478769 -37.116590 0.471380 -6.052263 4.245965 13.931888 -0.802140 0.622651 -10.266882 7.403003 2.958522 28.252393 0.281114 -8.210556 -19.846296 0.000000 0.000000 0.000000 -3.587214 4.609571 12.609968 2.997776 0.908482 -43.880817 -1.037076 6.789787 28.612122 4.858197 7.427347 0.749872 0.000000 0.000000 0.000000 -1.222543 5.917599 2.830313 0.972878 -2.578146 -4.683254 0.103426 -4.618690 5.645715 -0.038403 -0.081604 0.028768 0.121905 -3.509179 6.669037 5.814792 -0.067034 -3.869135 0.000000 0.000000 0.000000 1.396024 -3.378210 3.173832 -3.308632 -1.394596 -2.657048 -55.102145 -29.825609 47.075569 -125.965982 -88.510755 155.099157 0.000000 0.000000 0.000000 -2.245433 -1.747298 2.637612 10.924579 -11.083084 -13.409552 0.501394 23.197523 -43.025527 1.034649 26.689978 0.298236 0.000000 0.000000 0.000000 
5.760892 79.048431 52.285046 -0.917137 -37.098651 0.738164 -5.796202 4.615366 13.631035 0.087084 1.242012 -8.826341 7.505116 3.379737 29.242075 0.644381 -7.896729 -18.910806 0.000000 0.000000 0.000000 -3.538095 4.887458 12.758533 2.656223 2.089850 -42.368521 -0.883841 6.977227 30.186967 4.491885 6.893508 0.013431 0.000000 0.000000 0.000000 -0.993067 6.118876 2.771682 0.953030 -2.872716 -4.934651 0.210327 -4.635474 5.624991 -0.079000 -0.096664 -0.002891 0.189046 -3.555705 6.906528 6.356842 -0.093271 -3.472696 0.000000 0.000000 0.000000 1.384235 -3.419678 3.363721 -3.337450 -1.847119 -2.643588 -53.938140 -28.192253 47.289132 -114.977219 -88.490394 144.170540 0.000000 0.000000 0.000000 -2.282600 -1.769385 2.746070 10.888741 -11.262457 -13.339334 0.977824 22.160069 -42.121681 1.203720 27.249832 0.194802 0.000000 0.000000 0.000000 
3.564527 79.143204 53.797955 -1.004628 -37.027033 0.922423 -5.677745 4.663125 13.409027 0.726181 2.093310 -7.872088 7.928519 4.553613 30.801527 0.795883 -7.561952 -17.194335 0.000000 0.000000 0.000000 -3.489636 4.829327 12.866342 2.317768 3.241476 -40.893125 -0.668807 6.870569 31.698956 4.094563 6.364343 -1.305982 0.000000 0.000000 0.000000 -0.945575 5.965041 2.534157 0.817751 -3.119621 -5.229969 0.314630 -4.621358 5.764536 -0.087384 -0.110759 0.026912 0.184885 -3.502753 7.055031 6.640404 0.108178 -3.184217 0.000000 0.000000 0.000000 1.537629 -3.303635 3.451504 -3.576943 -2.237144 -2.792742 -52.833152 -26.422853 47.473353 -94.591338 -88.291765 123.805730 0.000000 0.000000 0.000000 -2.137303 -1.739062 2.897013 10.534669 -11.389627 -13.560535 1.436937 21.069124 -41.403842 1.460704 27.869549 0.267551 0.000000 0.000000 0.000000 
1.479262 79.233231 55.209747 -0.902987 -36.961080 0.771184 -5.519865 4.426048 13.350003 1.262577 3.055996 -7.685307 8.315591 5.298888 33.015546 0.586035 -7.204090 -14.511688 0.000000 0.000000 0.000000 -3.315675 4.553930 12.954937 2.225890 4.361733 -39.599169 -0.453593 5.915274 33.221094 3.561736 5.725072 -3.385463 0.000000 0.000000 0.000000 -0.902791 5.892200 2.607194 0.630865 -3.247354 -5.538257 0.400095 -4.541599 5.905823 -0.079616 -0.075074 -0.025543 0.326771 -3.649799 7.205088 7.235376 -0.088970 -2.978035 0.000000 0.000000 0.000000 1.446052 -3.316626 3.723186 -3.686855 -2.768911 -2.774279 -51.811705 -24.444965 47.441992 -83.398679 -88.302571 112.543165 0.000000 0.000000 0.000000 -2.138795 -1.736066 2.961289 10.242087 -11.619815 -13.587209 1.844569 19.963675 -40.788623 1.520118 28.518415 0.160252 0.000000 0.000000 0.000000 
-0.404439 79.274857 56.560261 -0.551096 -36.830900 0.465775 -5.572144 4.247331 13.426087 1.821077 3.780262 -8.491519 8.405910 5.235434 35.812731 0.081409 -6.968710 -10.882149 0.000000 0.000000 0.000000 -3.226008 4.198555 13.056836 2.228796 5.090130 -38.461065 -0.346872 4.572866 34.836625 2.985186 5.013107 -5.654514 0.000000 0.000000 0.000000 -1.010519 5.730030 2.489780 0.384887 -3.401606 -5.644094 0.419091 -4.518287 6.025505 -0.020386 -0.117250 -0.004181 0.395082 -3.463188 7.334816 7.522409 0.050324 -2.856985 0.000000 0.000000 0.000000 1.599322 -3.249010 3.818256 -3.871189 -3.050610 -2.840243 -50.972199 -22.328073 47.119272 -68.919655 -88.166452 97.937522 0.000000 0.000000 0.000000 -2.001094 -1.628555 3.101341 9.780419 -11.736148 -13.583672 2.116410 19.277642 -40.384569 1.517687 28.936834 0.093311 0.000000 0.000000 0.000000 
-2.093998 79.305374 57.860413 -0.646123 -36.910014 0.570355 -5.645021 3.899762 13.673347 2.358666 4.336498 -10.440194 7.929380 4.501026 39.732399 -0.845405 -7.379303 -5.952658 0.000000 0.000000 0.000000 -2.868964 4.010392 13.061382 2.356848 5.708836 -37.466630 -0.148907 3.485131 36.338054 2.510366 4.338478 -7.822809 0.000000 0.000000 0.000000 -0.851186 5.657775 2.343959 0.283077 -3.427533 -5.901444 0.503038 -4.483658 6.179241 -0.040380 -0.092801 0.007450 0.440261 -3.472590 7.496517 7.898241 0.039224 -2.788304 0.000000 0.000000 0.000000 1.576873 -3.142288 4.003264 -3.879736 -3.372732 -2.894332 -50.465881 -19.971944 46.721564 -59.808155 -88.061943 88.626335 0.000000 0.000000 0.000000 -2.005348 -1.570806 3.264907 9.406681 -11.843041 -13.616880 2.464814 18.938959 -40.038016 1.466298 29.323880 0.175126 0.000000 0.000000 0.000000 
-3.635062 79.340210 59.084568 -0.381758 -37.425834 0.232585 -5.678496 3.307270 13.659951 2.767497 5.143943 -13.395838 7.206089 3.826094 45.319927 -1.819764 -7.853441 -1.803048 0.000000 0.000000 0.000000 -2.615130 3.761858 13.067340 2.400741 6.095464 -36.267738 0.045297 3.466645 37.607554 2.095565 3.631328 -9.944904 0.000000 0.000000 0.000000 -0.847523 5.660768 2.279671 0.012986 -3.320953 -5.979485 0.548811 -4.364925 6.349215 -0.011651 -0.010944 0.008953 0.489566 -3.480939 7.662727 8.241669 0.030708 -2.736837 0.000000 0.000000 0.000000 1.627136 -3.054631 4.145509 -3.921206 -3.604572 -2.994166 -50.166995 -17.598770 46.199116 -52.479776 -87.883443 81.043855 0.000000 0.000000 0.000000 -1.926565 -1.491043 3.405701 9.155658 -11.838647 -13.334392 2.623231 19.062908 -39.734465 1.044108 29.525064 -0.056113 0.000000 0.000000 0.000000 
-5.108028 79.391197 60.275803 -0.320737 -38.088891 0.174814 -5.540736 2.836998 13.796163 3.295466 5.984126 -17.884526 5.819800 3.000987 51.470963 -2.885913 -8.873426 -0.854036 0.000000 0.000000 0.000000 -2.223452 3.314237 12.967087 2.581594 6.435916 -34.816534 0.288466 3.574010 38.468090 2.015385 3.176336 -11.948859 0.000000 0.000000 0.000000 -0.706949 5.451656 2.106951 -0.234033 -3.180138 -5.997113 0.582405 -4.325351 6.468512 -0.040512 0.002878 0.006502 0.574836 -3.366429 7.765416 8.600427 -0.419915 -2.787227 0.000000 0.000000 0.000000 1.760907 -2.973563 4.305828 -4.145234 -3.775002 -2.910265 -49.912765 -15.200839 45.785152 -46.161113 -87.805449 74.409454 0.000000 0.000000 0.000000 -1.860824 -1.421047 3.579326 8.865653 -11.803620 -13.194413 2.720025 19.462443 -39.694163 0.780215 29.634056 0.017335 0.000000 0.000000 0.000000 
-6.591892 79.461105 61.447876 -0.168141 -39.013685 0.130814 -4.882427 2.481159 13.706844 3.117671 5.963881 -23.000845 5.092356 2.748500 56.362065 -3.502961 -9.623372 -2.085953 0.000000 0.000000 0.000000 -2.108254 2.354685 12.823698 3.053283 6.428234 -33.125359 0.696320 4.307519 38.469350 2.190427 2.918942 -13.368541 0.000000 0.000000 0.000000 -0.576223 5.080351 1.878578 -0.538294 -2.934509 -5.927538 0.626225 -4.253565 6.590651 -0.011418 0.035271 -0.014694 0.586392 -3.443265 7.890022 8.851655 -0.373937 -2.840034 0.000000 0.000000 0.000000 1.814143 -2.902941 4.406868 -4.146156 -3.946635 -3.017445 -50.077806 -12.907483 45.317748 -43.811784 -87.753362 71.705081 0.000000 0.000000 0.000000 -1.835427 -1.282824 3.712735 8.461352 -11.756346 -12.894890 2.899491 20.042415 -39.498137 0.383157 29.717952 0.025561 0.000000 0.000000 0.000000 
